<?xml version="1.0" encoding="UTF-8"?>
<!DOCTYPE svg PUBLIC "-//W3C//DTD SVG 1.1//EN" "http://www.w3.org/Graphics/SVG/1.1/DTD/svg11.dtd">
<svg xmlns="http://www.w3.org/2000/svg" version="1.1" width="370px" height="370px" style="shape-rendering:geometricPrecision; text-rendering:geometricPrecision; image-rendering:optimizeQuality; fill-rule:evenodd; clip-rule:evenodd" xmlns:xlink="http://www.w3.org/1999/xlink">
<g><path style="opacity:1" fill="#fffefe" d="M -0.5,-0.5 C 122.833,-0.5 246.167,-0.5 369.5,-0.5C 369.5,122.833 369.5,246.167 369.5,369.5C 246.167,369.5 122.833,369.5 -0.5,369.5C -0.5,246.167 -0.5,122.833 -0.5,-0.5 Z"/></g>
<g><path style="opacity:1" fill="#f69250" d="M 156.5,73.5 C 159.808,72.9738 161.974,74.3072 163,77.5C 164.667,76.1667 166.333,76.1667 168,77.5C 168.345,79.6772 167.845,81.6772 166.5,83.5C 167.156,85.4534 167.489,87.4534 167.5,89.5C 165.599,89.5668 163.766,89.2335 162,88.5C 160.14,90.2009 157.973,91.2009 155.5,91.5C 155.5,89.1667 155.5,86.8333 155.5,84.5C 148.952,82.7665 148.952,80.7665 155.5,78.5C 156.452,76.9547 156.785,75.288 156.5,73.5 Z"/></g>
<g><path style="opacity:1" fill="#fdbf3b" d="M 157.5,74.5 C 159.121,74.7869 160.121,75.7869 160.5,77.5C 162.766,78.3142 165.1,78.8142 167.5,79C 164.261,81.2188 163.594,84.0522 165.5,87.5C 164.07,87.5792 162.736,87.2458 161.5,86.5C 157.489,90.7453 155.822,89.7453 156.5,83.5C 154.654,83.7778 153.32,83.1112 152.5,81.5C 154.045,80.5481 155.712,80.2148 157.5,80.5C 157.5,78.5 157.5,76.5 157.5,74.5 Z"/></g>
<g><path style="opacity:1" fill="#f6924a" d="M 182.5,70.5 C 186.151,70.1617 187.817,71.8284 187.5,75.5C 189.5,75.5 191.5,75.5 193.5,75.5C 193.716,77.6807 192.883,79.3474 191,80.5C 190.503,82.8098 190.337,85.1432 190.5,87.5C 188.173,87.7529 186.173,87.0863 184.5,85.5C 182.677,86.7472 180.677,87.4139 178.5,87.5C 178.663,85.1432 178.497,82.8098 178,80.5C 176.117,79.3474 175.284,77.6807 175.5,75.5C 177.5,75.5 179.5,75.5 181.5,75.5C 181.629,73.7839 181.962,72.1172 182.5,70.5 Z"/></g>
<g><path style="opacity:1" fill="#fec13b" d="M 183.5,71.5 C 185.185,72.1837 186.185,73.517 186.5,75.5C 188.167,76.1667 189.833,76.8333 191.5,77.5C 189.317,79.7069 187.984,82.3736 187.5,85.5C 186.5,84.8333 185.5,84.1667 184.5,83.5C 183.5,84.1667 182.5,84.8333 181.5,85.5C 180.913,82.3724 179.58,79.7057 177.5,77.5C 181.369,77.1912 183.369,75.1912 183.5,71.5 Z"/></g>
<g><path style="opacity:1" fill="#f69046" d="M 232.5,81.5 C 233.496,81.4142 234.329,81.7476 235,82.5C 235.333,84.1667 235.667,85.8333 236,87.5C 242.374,88.5287 242.874,90.5287 237.5,93.5C 236.534,95.396 236.201,97.396 236.5,99.5C 233.537,99.8493 231.204,98.8493 229.5,96.5C 223.622,98.2935 222.288,96.6268 225.5,91.5C 224.349,89.6746 223.682,87.6746 223.5,85.5C 227.548,86.1706 230.548,84.8373 232.5,81.5 Z"/></g>
<g><path style="opacity:1" fill="#f69149" d="M 216.5,81.5 C 215.645,82.5307 214.978,83.6974 214.5,85C 215.837,90.6818 214.003,91.8484 209,88.5C 207.121,90.0128 204.954,90.6795 202.5,90.5C 202.433,88.5992 202.767,86.7659 203.5,85C 197.778,80.9297 198.445,78.4297 205.5,77.5C 206.246,76.2638 206.579,74.9305 206.5,73.5C 210.5,72.8333 212.167,74.5 211.5,78.5C 213.5,78.5 215.5,78.5 217.5,78.5C 217.737,79.791 217.404,80.791 216.5,81.5 Z"/></g>
<g><path style="opacity:1" fill="#fec13b" d="M 216.5,81.5 C 215.504,81.4142 214.671,81.7476 214,82.5C 213.808,84.5767 213.308,86.5767 212.5,88.5C 210.167,85.8333 207.833,85.8333 205.5,88.5C 204.692,86.5767 204.192,84.5767 204,82.5C 203.075,81.9535 202.242,81.2868 201.5,80.5C 203.078,79.7022 204.744,79.2022 206.5,79C 208.518,72.8544 209.852,73.021 210.5,79.5C 213.082,79.0254 215.082,79.6921 216.5,81.5 Z"/></g>
<g><path style="opacity:1" fill="#fec33b" d="M 232.5,83.5 C 234.117,84.5893 234.95,86.256 235,88.5C 240.529,89.6319 240.696,90.9652 235.5,92.5C 234.702,94.0777 234.202,95.7444 234,97.5C 231.81,94.5068 228.977,93.6734 225.5,95C 228.08,92.4556 228.08,89.9556 225.5,87.5C 227.021,87.1203 228.687,86.9536 230.5,87C 231.823,86.1841 232.489,85.0174 232.5,83.5 Z"/></g>
<g><path style="opacity:1" fill="#f68f48" d="M 132.5,82.5 C 134.929,82.585 136.929,83.585 138.5,85.5C 140.173,83.9137 142.173,83.2471 144.5,83.5C 144.489,85.5466 144.156,87.5466 143.5,89.5C 144.937,91.5771 145.604,93.9105 145.5,96.5C 143.076,96.1924 140.743,96.5258 138.5,97.5C 134.88,100.495 133.213,99.4949 133.5,94.5C 127.568,93.8713 127.068,91.8713 132,88.5C 132.495,86.5273 132.662,84.5273 132.5,82.5 Z"/></g>
<g><path style="opacity:1" fill="#fec23b" d="M 133.5,84.5 C 135.156,85.1465 136.823,85.8131 138.5,86.5C 143.695,84.4838 144.695,85.6505 141.5,90C 142.101,91.605 143.101,92.9384 144.5,94C 140.543,93.6039 137.71,95.1039 136,98.5C 135.506,96.8659 135.34,95.1992 135.5,93.5C 133.436,93.313 131.436,92.813 129.5,92C 132.941,90.6816 134.275,88.1816 133.5,84.5 Z"/></g>
<g><path style="opacity:1" fill="#f6924a" d="M 254.5,95.5 C 255.496,95.4142 256.329,95.7476 257,96.5C 256.684,100.137 258.018,102.804 261,104.5C 261.483,105.448 261.649,106.448 261.5,107.5C 259.5,107.833 257.5,108.167 255.5,108.5C 256.169,112.676 254.669,114.009 251,112.5C 250.517,111.552 250.351,110.552 250.5,109.5C 248.167,109.5 245.833,109.5 243.5,109.5C 243.084,106.64 244.084,104.474 246.5,103C 245.713,100.901 245.38,98.7345 245.5,96.5C 247.6,96.4772 249.433,97.1439 251,98.5C 252.642,98.0222 253.809,97.0222 254.5,95.5 Z"/></g>
<g><path style="opacity:1" fill="#19a598" d="M 210.5,101.5 C 210.5,102.167 210.5,102.833 210.5,103.5C 208.5,103.5 206.5,103.5 204.5,103.5C 204.316,106.321 205.649,107.988 208.5,108.5C 209.48,111.086 209.813,113.753 209.5,116.5C 212.263,116.256 214.429,114.923 216,112.5C 217.897,114.016 220.064,114.683 222.5,114.5C 222.613,111.951 221.946,109.618 220.5,107.5C 220.624,106.893 220.957,106.56 221.5,106.5C 221.833,106.5 222.167,106.5 222.5,106.5C 262.674,129.534 277.841,163.867 268,209.5C 266.208,213.041 264.708,216.708 263.5,220.5C 262.833,220.5 262.167,220.5 261.5,220.5C 209.499,215.21 157.499,215.21 105.5,220.5C 93.9296,193.679 95.0963,167.346 109,141.5C 110.277,139.253 111.777,137.253 113.5,135.5C 113.511,137.017 114.177,138.184 115.5,139C 122.167,143.333 128.833,147.667 135.5,152C 134.207,152.49 132.873,152.657 131.5,152.5C 123.157,151.943 114.824,151.276 106.5,150.5C 106.407,156.516 106.074,162.516 105.5,168.5C 111.13,169.292 116.797,169.625 122.5,169.5C 120.068,183.428 118.068,197.428 116.5,211.5C 124.488,212.277 132.488,212.943 140.5,213.5C 140.901,199.819 141.568,186.153 142.5,172.5C 147.214,172.353 151.881,172.686 156.5,173.5C 151.813,191.626 157.813,204.793 174.5,213C 190.129,216.594 202.296,211.761 211,198.5C 212.352,195.28 213.186,191.947 213.5,188.5C 214.319,185.695 214.819,182.695 215,179.5C 223.266,188.87 226.766,199.87 225.5,212.5C 233.167,212.5 240.833,212.5 248.5,212.5C 247.336,204.536 246.836,196.536 247,188.5C 252.371,176.259 257.871,164.092 263.5,152C 254.13,151.725 244.797,152.225 235.5,153.5C 235.137,157.984 234.137,162.317 232.5,166.5C 230.246,162.993 228.246,159.327 226.5,155.5C 225.167,155.167 223.833,154.833 222.5,154.5C 215.998,154.994 209.665,155.661 203.5,156.5C 202.448,156.351 201.448,156.517 200.5,157C 201.711,157.893 201.711,158.726 200.5,159.5C 188.37,153.606 176.704,154.272 165.5,161.5C 164.167,161.5 162.833,161.5 161.5,161.5C 162.384,156.612 160.384,154.112 155.5,154C 145.037,143.521 134.703,133.021 124.5,122.5C 132.794,114.23 142.461,107.897 153.5,103.5C 154.107,103.624 154.44,103.957 154.5,104.5C 153.908,107.127 153.575,109.794 153.5,112.5C 142.861,112.901 142.027,115.568 151,120.5C 151.498,123.817 151.665,127.15 151.5,130.5C 152.552,130.649 153.552,130.483 154.5,130C 156.102,127.889 158.102,126.389 160.5,125.5C 163.199,127.347 166.199,128.347 169.5,128.5C 169.233,125.125 168.233,121.958 166.5,119C 167.608,116.888 169.108,115.054 171,113.5C 171.483,112.552 171.649,111.552 171.5,110.5C 168.15,110.665 164.817,110.498 161.5,110C 160.267,107.686 158.933,105.519 157.5,103.5C 157.47,102.503 157.97,101.836 159,101.5C 176.158,97.555 193.325,97.555 210.5,101.5 Z"/></g>
<g><path style="opacity:1" fill="#fec33b" d="M 254.5,97.5 C 255.376,97.3691 256.043,97.7025 256.5,98.5C 254.993,101.825 255.993,104.159 259.5,105.5C 257.955,106.452 256.288,106.785 254.5,106.5C 254.219,112.064 252.886,112.564 250.5,108C 248.833,107.667 247.167,107.333 245.5,107C 249.113,104.94 249.446,102.44 246.5,99.5C 248.164,98.7769 249.831,99.1103 251.5,100.5C 252.855,99.8118 253.855,98.8118 254.5,97.5 Z"/></g>
<g><path style="opacity:1" fill="#feb047" d="M 276.5,222.5 C 271.234,222.811 266.234,222.145 261.5,220.5C 262.167,220.5 262.833,220.5 263.5,220.5C 264.167,220.5 264.833,220.5 265.5,220.5C 267.048,220.179 267.715,219.179 267.5,217.5C 271.509,210.467 273.509,202.801 273.5,194.5C 276.617,174.633 272.617,156.3 261.5,139.5C 260.277,135.951 258.277,132.951 255.5,130.5C 254.581,127.911 252.914,125.911 250.5,124.5C 249.833,121.833 248.167,120.167 245.5,119.5C 243.761,116.757 241.427,114.757 238.5,113.5C 234.651,109.649 230.151,106.649 225,104.5C 224.235,104.57 223.735,104.903 223.5,105.5C 222.833,105.5 222.5,105.833 222.5,106.5C 222.167,106.5 221.833,106.5 221.5,106.5C 221.511,104.983 222.177,103.816 223.5,103C 221.167,102.667 218.833,102.333 216.5,102C 215.624,100.414 214.624,98.914 213.5,97.5C 212.989,99.8839 211.989,101.884 210.5,103.5C 210.5,102.833 210.5,102.167 210.5,101.5C 210.5,100.833 210.5,100.167 210.5,99.5C 210.389,98.8826 210.056,98.3826 209.5,98C 206.207,97.1744 202.874,96.6744 199.5,96.5C 164.082,90.7504 135.416,102.084 113.5,130.5C 106.149,138.867 101.149,148.534 98.5,159.5C 96.2835,164.131 95.1169,169.131 95,174.5C 94.1794,181.346 94.346,188.013 95.5,194.5C 95.2857,200.964 96.619,206.964 99.5,212.5C 99.8782,214.921 100.545,217.254 101.5,219.5C 100.833,219.167 100.167,218.833 99.5,218.5C 84.4984,176.676 93.8317,141.176 127.5,112C 165.541,86.0353 203.541,86.0353 241.5,112C 275.46,141.671 284.794,177.838 269.5,220.5C 271.969,221.168 274.302,221.835 276.5,222.5 Z"/></g>
<g><path style="opacity:1" fill="#f6c132" d="M 221.5,106.5 C 220.957,106.56 220.624,106.893 220.5,107.5C 221.946,109.618 222.613,111.951 222.5,114.5C 220.064,114.683 217.897,114.016 216,112.5C 214.429,114.923 212.263,116.256 209.5,116.5C 209.813,113.753 209.48,111.086 208.5,108.5C 205.649,107.988 204.316,106.321 204.5,103.5C 206.5,103.5 208.5,103.5 210.5,103.5C 211.989,101.884 212.989,99.8839 213.5,97.5C 214.624,98.914 215.624,100.414 216.5,102C 218.833,102.333 221.167,102.667 223.5,103C 222.177,103.816 221.511,104.983 221.5,106.5 Z"/></g>
<g><path style="opacity:1" fill="#e3d2be" d="M 199.5,96.5 C 202.874,96.6744 206.207,97.1744 209.5,98C 210.056,98.3826 210.389,98.8826 210.5,99.5C 206.554,99.1184 202.888,98.1184 199.5,96.5 Z"/></g>
<g><path style="opacity:1" fill="#d9c9b7" d="M 199.5,96.5 C 175.426,93.1862 153.426,98.3529 133.5,112C 126.663,118.005 119.996,124.171 113.5,130.5C 135.416,102.084 164.082,90.7504 199.5,96.5 Z"/></g>
<g><path style="opacity:1" fill="#f5c132" d="M 157.5,103.5 C 158.933,105.519 160.267,107.686 161.5,110C 164.817,110.498 168.15,110.665 171.5,110.5C 171.649,111.552 171.483,112.552 171,113.5C 169.108,115.054 167.608,116.888 166.5,119C 168.233,121.958 169.233,125.125 169.5,128.5C 166.199,128.347 163.199,127.347 160.5,125.5C 158.102,126.389 156.102,127.889 154.5,130C 153.552,130.483 152.552,130.649 151.5,130.5C 151.665,127.15 151.498,123.817 151,120.5C 142.027,115.568 142.861,112.901 153.5,112.5C 153.575,109.794 153.908,107.127 154.5,104.5C 155.391,103.89 156.391,103.557 157.5,103.5 Z"/></g>
<g><path style="opacity:1" fill="#e1d2bf" d="M 223.5,105.5 C 223.735,104.903 224.235,104.57 225,104.5C 230.151,106.649 234.651,109.649 238.5,113.5C 233.659,110.579 228.659,107.912 223.5,105.5 Z"/></g>
<g><path style="opacity:1" fill="#f69247" d="M 119.5,95.5 C 120.496,95.4142 121.329,95.7476 122,96.5C 121.694,100.597 123.194,103.763 126.5,106C 124.733,107.826 122.566,108.993 120,109.5C 119.51,110.793 119.343,112.127 119.5,113.5C 116.886,113.723 115.219,112.556 114.5,110C 107.897,109.689 106.897,107.189 111.5,102.5C 110.652,100.591 110.318,98.5914 110.5,96.5C 112.6,96.4772 114.433,97.1439 116,98.5C 117.642,98.0222 118.809,97.0222 119.5,95.5 Z"/></g>
<g><path style="opacity:1" fill="#fec23b" d="M 119.5,97.5 C 120.376,97.3691 121.043,97.7025 121.5,98.5C 119.694,102.105 120.694,104.605 124.5,106C 120.252,105.469 117.918,107.303 117.5,111.5C 115.82,108.425 113.154,106.925 109.5,107C 110.833,105.667 112.167,104.333 113.5,103C 110.725,98.2781 111.725,97.4447 116.5,100.5C 117.855,99.8118 118.855,98.8118 119.5,97.5 Z"/></g>
<g><path style="opacity:1" fill="#fecf37" d="M 185.5,122.5 C 184.624,122.631 183.957,122.298 183.5,121.5C 184.735,119.684 184.735,118.017 183.5,116.5C 184.552,114.744 186.219,114.077 188.5,114.5C 189.484,109.342 190.317,109.342 191,114.5C 192.509,115.09 194.009,115.756 195.5,116.5C 192.581,117.857 191.081,120.19 191,123.5C 189.322,121.447 187.489,121.113 185.5,122.5 Z"/></g>
<g><path style="opacity:1" fill="#dbcebc" d="M 238.5,113.5 C 241.427,114.757 243.761,116.757 245.5,119.5C 242.573,118.243 240.239,116.243 238.5,113.5 Z"/></g>
<g><path style="opacity:1" fill="#de9722" d="M 185.5,122.5 C 187.489,121.113 189.322,121.447 191,123.5C 191.081,120.19 192.581,117.857 195.5,116.5C 194.009,115.756 192.509,115.09 191,114.5C 190.317,109.342 189.484,109.342 188.5,114.5C 186.219,114.077 184.552,114.744 183.5,116.5C 182.188,115.855 181.188,114.855 180.5,113.5C 182.833,112.833 185.167,112.167 187.5,111.5C 188.285,108.847 189.785,108.18 192,109.5C 192.494,111.134 192.66,112.801 192.5,114.5C 198.323,114.798 198.823,116.465 194,119.5C 193.505,121.473 193.338,123.473 193.5,125.5C 190.833,124.5 188.167,123.5 185.5,122.5 Z"/></g>
<g><path style="opacity:1" fill="#f5dbb9" d="M 245.5,119.5 C 248.167,120.167 249.833,121.833 250.5,124.5C 248.5,123.167 246.833,121.5 245.5,119.5 Z"/></g>
<g><path style="opacity:1" fill="#d78a1d" d="M 183.5,116.5 C 184.735,118.017 184.735,119.684 183.5,121.5C 183.957,122.298 184.624,122.631 185.5,122.5C 184.292,123.782 182.958,123.782 181.5,122.5C 182.747,120.677 183.414,118.677 183.5,116.5 Z"/></g>
<g><path style="opacity:1" fill="#2baf9b" d="M 124.5,122.5 C 134.703,133.021 145.037,143.521 155.5,154C 160.384,154.112 162.384,156.612 161.5,161.5C 162.833,161.5 164.167,161.5 165.5,161.5C 164.207,163.296 162.707,164.963 161,166.5C 160.502,163.183 160.335,159.85 160.5,156.5C 156.989,156.101 153.656,155.434 150.5,154.5C 151.239,154.631 151.906,154.464 152.5,154C 141.941,144.607 131.941,134.773 122.5,124.5C 122.833,123.5 123.5,122.833 124.5,122.5 Z"/></g>
<g><path style="opacity:1" fill="#03a199" d="M 122.5,124.5 C 131.941,134.773 141.941,144.607 152.5,154C 151.906,154.464 151.239,154.631 150.5,154.5C 149.5,154.5 148.5,154.5 147.5,154.5C 144.917,153.776 142.251,152.943 139.5,152C 131.545,145.532 123.212,139.699 114.5,134.5C 116.208,130.428 118.874,127.095 122.5,124.5 Z"/></g>
<g><path style="opacity:1" fill="#f58e47" d="M 101.5,112.5 C 102.496,112.414 103.329,112.748 104,113.5C 104.495,115.473 104.662,117.473 104.5,119.5C 110.905,120.591 111.071,122.591 105,125.5C 104.506,127.134 104.34,128.801 104.5,130.5C 101.861,130.429 99.6942,129.429 98,127.5C 96.2341,128.233 94.4008,128.567 92.5,128.5C 92.3205,126.046 92.9872,123.879 94.5,122C 92.9872,120.121 92.3205,117.954 92.5,115.5C 94.4008,115.433 96.2341,115.767 98,116.5C 99.4021,115.355 100.569,114.022 101.5,112.5 Z"/></g>
<g><path style="opacity:1" fill="#fec13b" d="M 101.5,114.5 C 103.308,115.918 103.975,117.918 103.5,120.5C 110.092,121.428 110.092,122.428 103.5,123.5C 103.972,129.636 102.639,130.469 99.5,126C 94.7203,127.274 93.7203,125.94 96.5,122C 95.7433,120.488 94.7433,119.154 93.5,118C 95.5,118 97.5,118 99.5,118C 100.305,116.887 100.972,115.721 101.5,114.5 Z"/></g>
<g><path style="opacity:1" fill="#f6924c" d="M 263.5,113.5 C 265.929,113.585 267.929,114.585 269.5,116.5C 271.323,115.253 273.323,114.586 275.5,114.5C 275.682,116.591 275.348,118.591 274.5,120.5C 279.167,125.796 277.833,128.462 270.5,128.5C 269.715,131.153 268.215,131.82 266,130.5C 265.727,128.899 265.227,127.399 264.5,126C 259.001,125.53 258.335,123.697 262.5,120.5C 263.474,118.257 263.808,115.924 263.5,113.5 Z"/></g>
<g><path style="opacity:1" fill="#fec23b" d="M 264.5,116.5 C 264.56,115.957 264.893,115.624 265.5,115.5C 266.833,116.5 268.167,117.5 269.5,118.5C 274.132,115.635 275.132,116.468 272.5,121C 276.832,124.2 276.165,125.867 270.5,126C 268.114,130.564 266.781,130.064 266.5,124.5C 260.614,124.659 260.114,123.326 265,120.5C 265.765,118.934 265.598,117.601 264.5,116.5 Z"/></g>
<g><path style="opacity:1" fill="#dacebe" d="M 250.5,124.5 C 252.914,125.911 254.581,127.911 255.5,130.5C 253.086,129.089 251.419,127.089 250.5,124.5 Z"/></g>
<g><path style="opacity:1" fill="#f3bd30" d="M 236.5,139.5 C 234.656,141.279 233.99,143.612 234.5,146.5C 232.18,145.276 229.847,143.942 227.5,142.5C 225.865,143.046 224.199,143.38 222.5,143.5C 222.673,140.821 223.673,138.487 225.5,136.5C 220.941,131.226 222.108,129.56 229,131.5C 230.551,129.106 232.718,127.773 235.5,127.5C 235.5,129.833 235.5,132.167 235.5,134.5C 242.664,135.754 242.997,137.421 236.5,139.5 Z"/></g>
<g><path style="opacity:1" fill="#d9cdbe" d="M 255.5,130.5 C 258.277,132.951 260.277,135.951 261.5,139.5C 258.759,137.025 256.759,134.025 255.5,130.5 Z"/></g>
<g><path style="opacity:1" fill="#2bb09b" d="M 114.5,134.5 C 123.212,139.699 131.545,145.532 139.5,152C 142.251,152.943 144.917,153.776 147.5,154.5C 141.931,154.624 136.598,153.957 131.5,152.5C 132.873,152.657 134.207,152.49 135.5,152C 128.833,147.667 122.167,143.333 115.5,139C 114.177,138.184 113.511,137.017 113.5,135.5C 113.5,134.833 113.833,134.5 114.5,134.5 Z"/></g>
<g><path style="opacity:1" fill="#f7c8a2" d="M 203.5,135.5 C 203.833,135.5 204.167,135.5 204.5,135.5C 204.5,136.167 204.167,136.5 203.5,136.5C 202.25,136.423 201.417,135.756 201,134.5C 200.322,136.902 200.822,139.068 202.5,141C 202.43,141.765 202.097,142.265 201.5,142.5C 199.956,139.752 199.29,136.752 199.5,133.5C 201.199,133.527 202.533,134.194 203.5,135.5 Z"/></g>
<g><path style="opacity:1" fill="#f6914a" d="M 276.5,134.5 C 280.177,136.453 284.177,137.453 288.5,137.5C 288.753,139.827 288.086,141.827 286.5,143.5C 288.086,145.173 288.753,147.173 288.5,149.5C 286.738,149.643 285.071,149.309 283.5,148.5C 282.019,149.48 280.685,150.647 279.5,152C 278.833,152.667 278.167,152.667 277.5,152C 276.751,150.266 276.251,148.433 276,146.5C 273.877,146.034 272.377,144.867 271.5,143C 272.385,140.843 274.052,140.01 276.5,140.5C 276.5,138.5 276.5,136.5 276.5,134.5 Z"/></g>
<g><path style="opacity:1" fill="#dce5d1" d="M 163.5,130.5 C 166.5,130.5 169.5,130.5 172.5,130.5C 170.812,137.698 170.145,145.031 170.5,152.5C 168.833,152.5 167.167,152.5 165.5,152.5C 165.855,145.031 165.188,137.698 163.5,130.5 Z"/></g>
<g><path style="opacity:1" fill="#f6a873" d="M 166.5,133.5 C 167.327,138.985 167.827,144.652 168,150.5C 168.173,144.652 168.673,138.985 169.5,133.5C 169.5,139.5 169.5,145.5 169.5,151.5C 168.5,151.5 167.5,151.5 166.5,151.5C 166.5,145.5 166.5,139.5 166.5,133.5 Z"/></g>
<g><path style="opacity:1" fill="#f38039" d="M 169.5,133.5 C 168.673,138.985 168.173,144.652 168,150.5C 167.827,144.652 167.327,138.985 166.5,133.5C 165.624,133.631 164.957,133.298 164.5,132.5C 166.833,131.167 169.167,131.167 171.5,132.5C 171.043,133.298 170.376,133.631 169.5,133.5 Z"/></g>
<g><path style="opacity:1" fill="#fec13b" d="M 278.5,135.5 C 279.837,136.315 280.837,137.482 281.5,139C 283.587,138.782 285.587,138.949 287.5,139.5C 284.833,142.167 284.833,144.833 287.5,147.5C 286.169,148.166 284.669,148.166 283,147.5C 281.113,147.969 279.613,148.969 278.5,150.5C 277.534,148.604 277.201,146.604 277.5,144.5C 272.342,143.162 272.676,142.162 278.5,141.5C 278.5,139.5 278.5,137.5 278.5,135.5 Z"/></g>
<g><path style="opacity:1" fill="#554a3e" d="M 223.5,105.5 C 228.659,107.912 233.659,110.579 238.5,113.5C 240.239,116.243 242.573,118.243 245.5,119.5C 246.833,121.5 248.5,123.167 250.5,124.5C 251.419,127.089 253.086,129.089 255.5,130.5C 256.759,134.025 258.759,137.025 261.5,139.5C 270.747,156.634 274.747,174.967 273.5,194.5C 271.875,202.14 269.875,209.807 267.5,217.5C 266.599,218.29 265.932,219.29 265.5,220.5C 264.833,220.5 264.167,220.5 263.5,220.5C 264.708,216.708 266.208,213.041 268,209.5C 277.841,163.867 262.674,129.534 222.5,106.5C 222.5,105.833 222.833,105.5 223.5,105.5 Z"/></g>
<g><path style="opacity:1" fill="#d3e2cf" d="M 204.5,135.5 C 204.5,134.167 204.5,132.833 204.5,131.5C 202.167,131.5 199.833,131.5 197.5,131.5C 197.5,138.167 197.5,144.833 197.5,151.5C 199.833,151.5 202.167,151.5 204.5,151.5C 204.785,149.712 204.452,148.045 203.5,146.5C 202.893,146.624 202.56,146.957 202.5,147.5C 202.5,147.833 202.5,148.167 202.5,148.5C 200.692,147.082 200.025,145.082 200.5,142.5C 200.833,142.5 201.167,142.5 201.5,142.5C 202.097,142.265 202.43,141.765 202.5,141C 200.822,139.068 200.322,136.902 201,134.5C 201.417,135.756 202.25,136.423 203.5,136.5C 203.082,137.222 202.416,137.722 201.5,138C 204.094,140.072 204.094,142.239 201.5,144.5C 202.689,145.429 204.022,145.762 205.5,145.5C 205.5,147.833 205.5,150.167 205.5,152.5C 202.5,152.5 199.5,152.5 196.5,152.5C 196.5,145.167 196.5,137.833 196.5,130.5C 199.5,130.5 202.5,130.5 205.5,130.5C 205.784,132.415 205.451,134.081 204.5,135.5 Z"/></g>
<g><path style="opacity:1" fill="#f69e65" d="M 204.5,135.5 C 204.167,135.5 203.833,135.5 203.5,135.5C 203.5,134.5 203.5,133.5 203.5,132.5C 201.833,132.5 200.167,132.5 198.5,132.5C 198.5,138.5 198.5,144.5 198.5,150.5C 200.167,150.5 201.833,150.5 203.5,150.5C 203.737,149.209 203.404,148.209 202.5,147.5C 202.56,146.957 202.893,146.624 203.5,146.5C 204.452,148.045 204.785,149.712 204.5,151.5C 202.167,151.5 199.833,151.5 197.5,151.5C 197.5,144.833 197.5,138.167 197.5,131.5C 199.833,131.5 202.167,131.5 204.5,131.5C 204.5,132.833 204.5,134.167 204.5,135.5 Z"/></g>
<g><path style="opacity:1" fill="#e8d6bf" d="M 261.5,139.5 C 272.617,156.3 276.617,174.633 273.5,194.5C 274.747,174.967 270.747,156.634 261.5,139.5 Z"/></g>
<g><path style="opacity:1" fill="#f69145" d="M 87.5,133.5 C 90.7756,134.122 92.1089,136.122 91.5,139.5C 93.9775,139.051 95.9775,139.717 97.5,141.5C 96.8333,142.833 95.8333,143.833 94.5,144.5C 93.5258,146.743 93.1924,149.076 93.5,151.5C 91.0712,151.415 89.0712,150.415 87.5,148.5C 85.8273,150.086 83.8273,150.753 81.5,150.5C 81.4332,148.599 81.7665,146.766 82.5,145C 80.7991,143.14 79.7991,140.973 79.5,138.5C 83.7634,139.207 86.43,137.54 87.5,133.5 Z"/></g>
<g><path style="opacity:1" fill="#fec23b" d="M 87.5,135.5 C 89.0853,136.474 90.0853,137.974 90.5,140C 96.2816,140.282 96.7816,141.782 92,144.5C 92.0464,146.313 91.8797,147.979 91.5,149.5C 89.4168,147.396 87.0835,147.062 84.5,148.5C 83.3554,147.224 83.3554,145.891 84.5,144.5C 83.6872,143.186 82.6872,142.019 81.5,141C 83.1341,140.506 84.8008,140.34 86.5,140.5C 86.6287,138.784 86.962,137.117 87.5,135.5 Z"/></g>
<g><path style="opacity:1" fill="#54493c" d="M 199.5,96.5 C 202.888,98.1184 206.554,99.1184 210.5,99.5C 210.5,100.167 210.5,100.833 210.5,101.5C 193.325,97.555 176.158,97.555 159,101.5C 157.97,101.836 157.47,102.503 157.5,103.5C 156.391,103.557 155.391,103.89 154.5,104.5C 154.44,103.957 154.107,103.624 153.5,103.5C 142.461,107.897 132.794,114.23 124.5,122.5C 123.5,122.833 122.833,123.5 122.5,124.5C 118.874,127.095 116.208,130.428 114.5,134.5C 113.833,134.5 113.5,134.833 113.5,135.5C 111.777,137.253 110.277,139.253 109,141.5C 95.0963,167.346 93.9296,193.679 105.5,220.5C 104.833,220.5 104.167,220.5 103.5,220.5C 102.677,217.52 101.343,214.853 99.5,212.5C 98.4869,206.299 97.1536,200.299 95.5,194.5C 95.0682,182.693 96.0682,171.026 98.5,159.5C 102.7,149.433 107.7,139.766 113.5,130.5C 119.996,124.171 126.663,118.005 133.5,112C 153.426,98.3529 175.426,93.1862 199.5,96.5 Z"/></g>
<g><path style="opacity:1" fill="#f37d35" d="M 203.5,135.5 C 202.533,134.194 201.199,133.527 199.5,133.5C 199.29,136.752 199.956,139.752 201.5,142.5C 201.167,142.5 200.833,142.5 200.5,142.5C 199.532,144.607 199.198,146.941 199.5,149.5C 200.791,149.737 201.791,149.404 202.5,148.5C 202.5,148.167 202.5,147.833 202.5,147.5C 203.404,148.209 203.737,149.209 203.5,150.5C 201.833,150.5 200.167,150.5 198.5,150.5C 198.5,144.5 198.5,138.5 198.5,132.5C 200.167,132.5 201.833,132.5 203.5,132.5C 203.5,133.5 203.5,134.5 203.5,135.5 Z"/></g>
<g><path style="opacity:1" fill="#9f8434" d="M 236.5,139.5 C 235.935,141.952 235.268,144.285 234.5,146.5C 233.99,143.612 234.656,141.279 236.5,139.5 Z"/></g>
<g><path style="opacity:1" fill="#8cd0c0" d="M 180.5,130.5 C 180.5,137.5 180.5,144.5 180.5,151.5C 183.167,151.5 185.833,151.5 188.5,151.5C 188.5,144.5 188.5,137.5 188.5,130.5C 189.492,137.648 189.825,144.981 189.5,152.5C 186.167,152.5 182.833,152.5 179.5,152.5C 179.175,144.981 179.508,137.648 180.5,130.5 Z"/></g>
<g><path style="opacity:1" fill="#f9d8b9" d="M 180.5,130.5 C 183.167,130.5 185.833,130.5 188.5,130.5C 188.5,137.5 188.5,144.5 188.5,151.5C 185.833,151.5 183.167,151.5 180.5,151.5C 180.5,144.5 180.5,137.5 180.5,130.5 Z"/></g>
<g><path style="opacity:1" fill="#f38642" d="M 181.5,131.5 C 183.123,135.424 184.123,139.757 184.5,144.5C 185.167,140.167 185.833,135.833 186.5,131.5C 187.833,137.833 187.833,144.167 186.5,150.5C 185.167,145.167 183.833,145.167 182.5,150.5C 181.504,144.202 181.17,137.868 181.5,131.5 Z"/></g>
<g><path style="opacity:1" fill="#f8c198" d="M 200.5,142.5 C 200.025,145.082 200.692,147.082 202.5,148.5C 201.791,149.404 200.791,149.737 199.5,149.5C 199.198,146.941 199.532,144.607 200.5,142.5 Z"/></g>
<g><path style="opacity:1" fill="#e5d5c1" d="M 113.5,130.5 C 107.7,139.766 102.7,149.433 98.5,159.5C 101.149,148.534 106.149,138.867 113.5,130.5 Z"/></g>
<g><path style="opacity:1" fill="#61a2aa" d="M 215.5,176.5 C 211.844,170.528 208.178,164.528 204.5,158.5C 207.428,157.516 210.428,157.183 213.5,157.5C 217.514,157.334 221.514,157.501 225.5,158C 227.773,163.38 230.44,168.546 233.5,173.5C 234.835,167.157 236.168,160.824 237.5,154.5C 244.84,154.277 252.173,153.944 259.5,153.5C 255.024,165.752 249.857,177.752 244,189.5C 244.034,196.574 244.867,203.574 246.5,210.5C 240.167,210.5 233.833,210.5 227.5,210.5C 227.151,204.16 226.651,197.827 226,191.5C 222.248,186.597 218.748,181.597 215.5,176.5 Z"/></g>
<g><path style="opacity:1" fill="#e3e8d7" d="M 213.5,188.5 C 213.335,184.818 213.501,181.152 214,177.5C 215.107,178.712 215.607,178.379 215.5,176.5C 218.748,181.597 222.248,186.597 226,191.5C 226.651,197.827 227.151,204.16 227.5,210.5C 233.833,210.5 240.167,210.5 246.5,210.5C 244.867,203.574 244.034,196.574 244,189.5C 249.857,177.752 255.024,165.752 259.5,153.5C 252.173,153.944 244.84,154.277 237.5,154.5C 236.168,160.824 234.835,167.157 233.5,173.5C 230.44,168.546 227.773,163.38 225.5,158C 221.514,157.501 217.514,157.334 213.5,157.5C 210.375,156.521 207.042,156.187 203.5,156.5C 209.665,155.661 215.998,154.994 222.5,154.5C 223.833,154.833 225.167,155.167 226.5,155.5C 228.246,159.327 230.246,162.993 232.5,166.5C 234.137,162.317 235.137,157.984 235.5,153.5C 244.797,152.225 254.13,151.725 263.5,152C 257.871,164.092 252.371,176.259 247,188.5C 246.836,196.536 247.336,204.536 248.5,212.5C 240.833,212.5 233.167,212.5 225.5,212.5C 226.766,199.87 223.266,188.87 215,179.5C 214.819,182.695 214.319,185.695 213.5,188.5 Z"/></g>
<g><path style="opacity:1" fill="#f69247" d="M 78.5,157.5 C 81.1142,157.277 82.7809,158.444 83.5,161C 85.4727,161.495 87.4727,161.662 89.5,161.5C 89.415,163.929 88.415,165.929 86.5,167.5C 88.0863,169.173 88.7529,171.173 88.5,173.5C 86.4534,173.489 84.4534,173.156 82.5,172.5C 80.4229,173.937 78.0895,174.604 75.5,174.5C 75.6621,172.473 75.4955,170.473 75,168.5C 73.5134,167.845 72.3467,166.845 71.5,165.5C 72.9906,163.988 74.8239,162.988 77,162.5C 77.3519,160.753 77.8519,159.086 78.5,157.5 Z"/></g>
<g><path style="opacity:1" fill="#fec33b" d="M 79.5,159.5 C 80.3636,160.688 81.3636,161.855 82.5,163C 84.2251,162.591 85.8918,162.758 87.5,163.5C 86.3887,164.611 85.722,165.945 85.5,167.5C 87.5162,172.695 86.3495,173.695 82,170.5C 80.395,171.101 79.0616,172.101 78,173.5C 78.075,169.846 76.575,167.18 73.5,165.5C 77.8011,165.619 79.8011,163.619 79.5,159.5 Z"/></g>
<g><path style="opacity:1" fill="#f58f47" d="M 285.5,161.5 C 285.5,160.167 285.5,158.833 285.5,157.5C 289.5,156.833 291.167,158.5 290.5,162.5C 292.5,162.5 294.5,162.5 296.5,162.5C 296.201,164.973 295.201,167.14 293.5,169C 294.916,174.718 293.083,175.885 288,172.5C 282.997,175.848 281.163,174.682 282.5,169C 276.786,164.241 277.786,161.741 285.5,161.5 Z"/></g>
<g><path style="opacity:1" fill="#fec13b" d="M 285.5,161.5 C 287.828,157.717 289.161,158.384 289.5,163.5C 291.527,163.338 293.527,163.505 295.5,164C 291.457,166.028 290.791,168.695 293.5,172C 291.536,172.624 289.869,172.124 288.5,170.5C 286.742,171.128 285.242,172.128 284,173.5C 283.349,171.765 283.515,170.098 284.5,168.5C 283.167,167.167 281.833,165.833 280.5,164.5C 282.655,163.999 284.322,162.999 285.5,161.5 Z"/></g>
<g><path style="opacity:1" fill="#eddbc2" d="M 98.5,159.5 C 96.0682,171.026 95.0682,182.693 95.5,194.5C 94.346,188.013 94.1794,181.346 95,174.5C 95.1169,169.131 96.2835,164.131 98.5,159.5 Z"/></g>
<g><path style="opacity:1" fill="#f6934b" d="M 289.5,181.5 C 293.068,181.759 294.401,183.759 293.5,187.5C 299.432,188.129 299.932,190.129 295,193.5C 294.505,195.473 294.338,197.473 294.5,199.5C 291.579,199.854 289.246,198.854 287.5,196.5C 285.591,197.348 283.591,197.682 281.5,197.5C 281.477,195.4 282.144,193.567 283.5,192C 281.987,190.121 281.321,187.954 281.5,185.5C 285.483,186.428 288.15,185.095 289.5,181.5 Z"/></g>
<g><path style="opacity:1" fill="#fec23b" d="M 290.5,183.5 C 291.451,184.919 291.784,186.585 291.5,188.5C 296.913,188.99 297.413,190.324 293,192.5C 292.798,194.256 292.298,195.922 291.5,197.5C 289.616,193.983 287.283,193.649 284.5,196.5C 283.777,194.836 284.11,193.169 285.5,191.5C 284.5,190.167 283.5,188.833 282.5,187.5C 283.922,186.453 285.422,186.453 287,187.5C 288.402,186.355 289.569,185.022 290.5,183.5 Z"/></g>
<g><path style="opacity:1" fill="#f6944e" d="M 74.5,182.5 C 77.3245,182.081 79.4912,183.081 81,185.5C 87.1877,182.354 88.6877,183.854 85.5,190C 86.2887,191.626 87.2887,193.126 88.5,194.5C 84.9062,195.812 81.4062,197.479 78,199.5C 75.8434,198.615 75.0101,196.948 75.5,194.5C 69.8245,194.14 69.1579,192.14 73.5,188.5C 74.4656,186.604 74.7989,184.604 74.5,182.5 Z"/></g>
<g><path style="opacity:1" fill="#fec33b" d="M 76.5,184.5 C 78.1561,185.146 79.8228,185.813 81.5,186.5C 85.9637,185.145 86.6304,186.312 83.5,190C 84.1007,191.605 85.1007,192.938 86.5,194C 82.5433,193.604 79.71,195.104 78,198.5C 78.5307,194.252 76.6974,191.918 72.5,191.5C 75.5609,190.19 76.8942,187.857 76.5,184.5 Z"/></g>
<g><path style="opacity:1" fill="#e5d4be" d="M 95.5,194.5 C 97.1536,200.299 98.4869,206.299 99.5,212.5C 96.619,206.964 95.2857,200.964 95.5,194.5 Z"/></g>
<g><path style="opacity:1" fill="#e1d1bc" d="M 273.5,194.5 C 273.509,202.801 271.509,210.467 267.5,217.5C 269.875,209.807 271.875,202.14 273.5,194.5 Z"/></g>
<g><path style="opacity:1" fill="#efead5" d="M 131.5,152.5 C 136.598,153.957 141.931,154.624 147.5,154.5C 148.5,154.5 149.5,154.5 150.5,154.5C 153.656,155.434 156.989,156.101 160.5,156.5C 160.335,159.85 160.502,163.183 161,166.5C 162.707,164.963 164.207,163.296 165.5,161.5C 176.704,154.272 188.37,153.606 200.5,159.5C 201.711,158.726 201.711,157.893 200.5,157C 201.448,156.517 202.448,156.351 203.5,156.5C 207.042,156.187 210.375,156.521 213.5,157.5C 210.428,157.183 207.428,157.516 204.5,158.5C 208.178,164.528 211.844,170.528 215.5,176.5C 215.607,178.379 215.107,178.712 214,177.5C 213.501,181.152 213.335,184.818 213.5,188.5C 213.186,191.947 212.352,195.28 211,198.5C 202.296,211.761 190.129,216.594 174.5,213C 157.813,204.793 151.813,191.626 156.5,173.5C 151.881,172.686 147.214,172.353 142.5,172.5C 141.568,186.153 140.901,199.819 140.5,213.5C 132.488,212.943 124.488,212.277 116.5,211.5C 118.068,197.428 120.068,183.428 122.5,169.5C 116.797,169.625 111.13,169.292 105.5,168.5C 106.074,162.516 106.407,156.516 106.5,150.5C 114.824,151.276 123.157,151.943 131.5,152.5 Z"/></g>
<g><path style="opacity:1" fill="#cc3741" d="M 177.5,157.5 C 200.405,156.243 211.571,166.909 211,189.5C 208.711,200.457 202.211,207.624 191.5,211C 171.031,213.533 159.697,204.533 157.5,184C 157.425,176.487 160.092,170.153 165.5,165C 169.429,162.212 173.429,159.712 177.5,157.5 Z"/></g>
<g><path style="opacity:1" fill="#f2e6d5" d="M 180.5,175.5 C 190.646,174.293 194.813,178.627 193,188.5C 190.647,193.426 186.814,195.26 181.5,194C 175.975,191.081 174.142,186.581 176,180.5C 177.025,178.313 178.525,176.646 180.5,175.5 Z"/></g>
<g><path style="opacity:1" fill="#27aa9e" d="M 181.5,177.5 C 188.706,177.202 191.873,180.535 191,187.5C 186.667,192.833 182.333,192.833 178,187.5C 177.333,185.5 177.333,183.5 178,181.5C 179.376,180.295 180.542,178.962 181.5,177.5 Z"/></g>
<g><path style="opacity:1" fill="#f2db90" d="M 150.5,157.5 C 153.167,157.5 155.833,157.5 158.5,157.5C 158.81,160.713 158.477,163.713 157.5,166.5C 157.5,163.833 157.5,161.167 157.5,158.5C 154.941,158.802 152.607,158.468 150.5,157.5 Z"/></g>
<g><path style="opacity:1" fill="#edc954" d="M 150.5,157.5 C 152.607,158.468 154.941,158.802 157.5,158.5C 157.5,161.167 157.5,163.833 157.5,166.5C 157.5,167.833 157.5,169.167 157.5,170.5C 151.471,170.575 145.471,170.241 139.5,169.5C 138.716,183.152 138.382,196.819 138.5,210.5C 132.155,210.347 125.822,210.014 119.5,209.5C 121.334,195.498 123.334,181.498 125.5,167.5C 119.839,167.093 114.172,166.76 108.5,166.5C 108.586,162.143 108.92,157.81 109.5,153.5C 123.167,154.833 136.833,156.167 150.5,157.5 Z"/></g>
<g><path style="opacity:1" fill="#d0c6bb" d="M 99.5,212.5 C 101.343,214.853 102.677,217.52 103.5,220.5C 102.508,220.672 101.842,220.338 101.5,219.5C 100.545,217.254 99.8782,214.921 99.5,212.5 Z"/></g>
<g><path style="opacity:1" fill="#f89f31" d="M 261.5,220.5 C 266.234,222.145 271.234,222.811 276.5,222.5C 277.833,222.5 279.167,222.5 280.5,222.5C 278.592,234.094 277.259,245.761 276.5,257.5C 275.5,257.5 274.5,257.5 273.5,257.5C 272.833,256.833 272.167,256.167 271.5,255.5C 272.693,255.03 273.36,254.03 273.5,252.5C 274.965,243.175 276.299,233.842 277.5,224.5C 216.2,216.73 154.866,216.563 93.5,224C 92.3159,225.18 91.6493,226.68 91.5,228.5C 92.6486,237.468 93.3153,246.468 93.5,255.5C 110.955,253.554 128.288,251.887 145.5,250.5C 146.833,250.5 148.167,250.5 149.5,250.5C 170.142,249.38 190.809,249.213 211.5,250C 212.416,250.278 213.082,250.778 213.5,251.5C 209.167,251.5 204.833,251.5 200.5,251.5C 177.795,251.175 155.129,251.842 132.5,253.5C 129.763,253.401 127.096,253.735 124.5,254.5C 113.461,255.541 102.461,256.875 91.5,258.5C 90.8604,246.465 89.8604,234.465 88.5,222.5C 92.1185,221.756 95.7852,221.423 99.5,221.5C 99.5,220.5 99.5,219.5 99.5,218.5C 100.167,218.833 100.833,219.167 101.5,219.5C 101.842,220.338 102.508,220.672 103.5,220.5C 104.167,220.5 104.833,220.5 105.5,220.5C 157.499,215.21 209.499,215.21 261.5,220.5 Z"/></g>
<g><path style="opacity:1" fill="#dcceba" d="M 267.5,217.5 C 267.715,219.179 267.048,220.179 265.5,220.5C 265.932,219.29 266.599,218.29 267.5,217.5 Z"/></g>
<g><path style="opacity:1" fill="#cd3114" d="M 271.5,255.5 C 252.247,253.096 232.913,251.763 213.5,251.5C 213.082,250.778 212.416,250.278 211.5,250C 190.809,249.213 170.142,249.38 149.5,250.5C 152.449,246.372 153.282,241.705 152,236.5C 150.926,235.382 149.76,234.382 148.5,233.5C 149.325,232.614 150.325,232.281 151.5,232.5C 152.231,228.397 151.231,224.897 148.5,222C 143.037,221.161 137.871,221.994 133,224.5C 132.233,228.594 132.566,232.594 134,236.5C 138.699,238.668 138.532,239.668 133.5,239.5C 132.337,248.667 136.337,252.334 145.5,250.5C 128.288,251.887 110.955,253.554 93.5,255.5C 93.3153,246.468 92.6486,237.468 91.5,228.5C 91.6493,226.68 92.3159,225.18 93.5,224C 154.866,216.563 216.2,216.73 277.5,224.5C 276.299,233.842 274.965,243.175 273.5,252.5C 273.36,254.03 272.693,255.03 271.5,255.5 Z"/></g>
<g><path style="opacity:1" fill="#a83531" d="M 191.5,220.5 C 196.179,220.334 200.845,220.501 205.5,221C 206,221.5 206.5,222 207,222.5C 207.667,230.5 207.667,238.5 207,246.5C 206.5,247 206,247.5 205.5,248C 200.833,248.667 196.167,248.667 191.5,248C 190.667,247.167 189.833,246.333 189,245.5C 188.333,238.167 188.333,230.833 189,223.5C 190.045,222.627 190.878,221.627 191.5,220.5 Z"/></g>
<g><path style="opacity:1" fill="#fae8c8" d="M 192.5,222.5 C 196.514,222.334 200.514,222.501 204.5,223C 205,223.5 205.5,224 206,224.5C 206.298,231.755 205.798,238.922 204.5,246C 200.245,246.796 196.079,246.629 192,245.5C 191.202,237.754 191.369,230.087 192.5,222.5 Z"/></g>
<g><path style="opacity:1" fill="#a22a2b" d="M 158.5,220.5 C 166.507,220.334 174.507,220.5 182.5,221C 182,221.5 181.5,222 181,222.5C 180.333,229.833 180.333,237.167 181,244.5C 181.5,245.5 182,246.5 182.5,247.5C 174.833,248.833 167.167,248.833 159.5,247.5C 159.808,246.692 160.308,246.025 161,245.5C 161.667,238.5 161.667,231.5 161,224.5C 159.519,223.529 158.685,222.196 158.5,220.5 Z"/></g>
<g><path style="opacity:1" fill="#f7e1c3" d="M 173.5,246.5 C 173.5,243.167 173.5,239.833 173.5,236.5C 171.5,236.5 169.5,236.5 167.5,236.5C 167.19,239.713 167.523,242.713 168.5,245.5C 168.5,245.833 168.5,246.167 168.5,246.5C 166.833,246.5 165.167,246.5 163.5,246.5C 163.819,241.637 163.486,236.97 162.5,232.5C 162.5,229.167 162.5,225.833 162.5,222.5C 164.167,222.5 165.833,222.5 167.5,222.5C 167.5,225.833 167.5,229.167 167.5,232.5C 169.167,232.5 170.833,232.5 172.5,232.5C 172.5,229.167 172.5,225.833 172.5,222.5C 174.5,222.5 176.5,222.5 178.5,222.5C 178.5,230.5 178.5,238.5 178.5,246.5C 176.833,246.5 175.167,246.5 173.5,246.5 Z"/></g>
<g><path style="opacity:1" fill="#a63331" d="M 149.5,250.5 C 148.167,250.5 146.833,250.5 145.5,250.5C 136.337,252.334 132.337,248.667 133.5,239.5C 138.532,239.668 138.699,238.668 134,236.5C 132.566,232.594 132.233,228.594 133,224.5C 137.871,221.994 143.037,221.161 148.5,222C 151.231,224.897 152.231,228.397 151.5,232.5C 150.325,232.281 149.325,232.614 148.5,233.5C 149.76,234.382 150.926,235.382 152,236.5C 153.282,241.705 152.449,246.372 149.5,250.5 Z"/></g>
<g><path style="opacity:1" fill="#f6dfc0" d="M 140.5,223.5 C 146.826,221.841 149.826,224.174 149.5,230.5C 146.167,229.833 142.833,229.167 139.5,228.5C 139.238,229.978 139.571,231.311 140.5,232.5C 143.746,234.039 146.912,235.706 150,237.5C 150.667,240.5 150.667,243.5 150,246.5C 145.587,247.632 141.087,247.799 136.5,247C 135.577,244.959 135.244,242.792 135.5,240.5C 137.167,240.5 138.833,240.5 140.5,240.5C 140.5,241.5 140.5,242.5 140.5,243.5C 142.167,243.5 143.833,243.5 145.5,243.5C 145.5,242.167 145.5,240.833 145.5,239.5C 136.386,238.9 132.886,234.233 135,225.5C 136.948,224.891 138.782,224.224 140.5,223.5 Z"/></g>
<g><path style="opacity:1" fill="#d08e7e" d="M 200.5,242.5 C 200.5,237.5 200.5,232.5 200.5,227.5C 199.167,227.5 197.833,227.5 196.5,227.5C 196.5,232.5 196.5,237.5 196.5,242.5C 195.512,237.36 195.179,232.026 195.5,226.5C 197.5,226.5 199.5,226.5 201.5,226.5C 201.821,232.026 201.488,237.36 200.5,242.5 Z"/></g>
<g><path style="opacity:1" fill="#a22828" d="M 200.5,242.5 C 199.167,242.5 197.833,242.5 196.5,242.5C 196.5,237.5 196.5,232.5 196.5,227.5C 197.833,227.5 199.167,227.5 200.5,227.5C 200.5,232.5 200.5,237.5 200.5,242.5 Z"/></g>
<g><path style="opacity:1" fill="#bc635b" d="M 173.5,246.5 C 172.523,243.713 172.19,240.713 172.5,237.5C 171.167,237.5 169.833,237.5 168.5,237.5C 168.5,240.167 168.5,242.833 168.5,245.5C 167.523,242.713 167.19,239.713 167.5,236.5C 169.5,236.5 171.5,236.5 173.5,236.5C 173.5,239.833 173.5,243.167 173.5,246.5 Z"/></g>
<g><path style="opacity:1" fill="#a42e2d" d="M 215.5,222.5 C 221.364,221.401 227.364,221.568 233.5,223C 234.333,223.833 235.167,224.667 236,225.5C 236.456,230.975 235.789,236.308 234,241.5C 230.943,242.451 227.777,242.784 224.5,242.5C 224.387,245.049 225.054,247.382 226.5,249.5C 222.133,250.404 217.8,250.071 213.5,248.5C 214.531,247.3 215.365,245.966 216,244.5C 216.44,239.327 216.94,234.161 217.5,229C 217.664,226.456 216.997,224.29 215.5,222.5 Z"/></g>
<g><path style="opacity:1" fill="#f8e3c4" d="M 219.5,223.5 C 224.434,223.72 229.267,224.387 234,225.5C 234.624,230.223 234.29,234.89 233,239.5C 229.943,240.451 226.777,240.784 223.5,240.5C 223.007,242.806 222.674,245.139 222.5,247.5C 220.712,247.785 219.045,247.452 217.5,246.5C 218.766,238.905 219.433,231.238 219.5,223.5 Z"/></g>
<g><path style="opacity:1" fill="#c98073" d="M 228.5,228.5 C 229.473,230.948 229.806,233.615 229.5,236.5C 227.5,236.5 225.5,236.5 223.5,236.5C 223.216,234.585 223.549,232.919 224.5,231.5C 224.5,232.833 224.5,234.167 224.5,235.5C 225.833,235.5 227.167,235.5 228.5,235.5C 228.5,233.167 228.5,230.833 228.5,228.5 Z"/></g>
<g><path style="opacity:1" fill="#a12628" d="M 228.5,228.5 C 228.5,230.833 228.5,233.167 228.5,235.5C 227.167,235.5 225.833,235.5 224.5,235.5C 224.5,234.167 224.5,232.833 224.5,231.5C 224.5,230.5 224.5,229.5 224.5,228.5C 225.833,228.5 227.167,228.5 228.5,228.5 Z"/></g>
<g><path style="opacity:1" fill="#c27066" d="M 162.5,232.5 C 163.486,236.97 163.819,241.637 163.5,246.5C 165.167,246.5 166.833,246.5 168.5,246.5C 166.735,247.461 164.735,247.795 162.5,247.5C 162.5,242.5 162.5,237.5 162.5,232.5 Z"/></g>
<g><path style="opacity:1" fill="#25a294" d="M 200.5,251.5 C 212.524,252.168 224.524,253.168 236.5,254.5C 206.446,274.626 175.113,276.793 142.5,261C 139.014,259.004 135.681,256.837 132.5,254.5C 132.5,254.167 132.5,253.833 132.5,253.5C 155.129,251.842 177.795,251.175 200.5,251.5 Z"/></g>
<g><path style="opacity:1" fill="#feb24e" d="M 200.5,251.5 C 204.833,251.5 209.167,251.5 213.5,251.5C 232.913,251.763 252.247,253.096 271.5,255.5C 272.167,256.167 272.833,256.833 273.5,257.5C 264.289,256.869 255.122,255.869 246,254.5C 212.377,279.889 176.544,283.389 138.5,265C 133.586,261.723 128.92,258.223 124.5,254.5C 127.096,253.735 129.763,253.401 132.5,253.5C 132.5,253.833 132.5,254.167 132.5,254.5C 131.833,254.5 131.167,254.5 130.5,254.5C 129.761,254.369 129.094,254.536 128.5,255C 129.471,256.481 130.804,257.315 132.5,257.5C 132.973,258.906 133.973,259.573 135.5,259.5C 146.11,267.486 158.11,272.152 171.5,273.5C 179.833,273.5 188.167,273.5 196.5,273.5C 211.433,271.701 225.1,266.534 237.5,258C 238.5,257 239.5,256 240.5,255C 239.906,254.536 239.239,254.369 238.5,254.5C 237.833,254.5 237.167,254.5 236.5,254.5C 224.524,253.168 212.524,252.168 200.5,251.5 Z"/></g>
<g><path style="opacity:1" fill="#e6d5bf" d="M 238.5,254.5 C 239.239,254.369 239.906,254.536 240.5,255C 239.5,256 238.5,257 237.5,258C 225.1,266.534 211.433,271.701 196.5,273.5C 209.452,270.565 221.785,265.732 233.5,259C 235.618,257.951 237.284,256.451 238.5,254.5 Z"/></g>
<g><path style="opacity:1" fill="#584c40" d="M 130.5,254.5 C 131.167,254.5 131.833,254.5 132.5,254.5C 135.681,256.837 139.014,259.004 142.5,261C 175.113,276.793 206.446,274.626 236.5,254.5C 237.167,254.5 237.833,254.5 238.5,254.5C 237.284,256.451 235.618,257.951 233.5,259C 221.785,265.732 209.452,270.565 196.5,273.5C 188.167,273.5 179.833,273.5 171.5,273.5C 158.883,270.624 146.883,265.957 135.5,259.5C 135.027,258.094 134.027,257.427 132.5,257.5C 131.833,256.5 131.167,255.5 130.5,254.5 Z"/></g>
<g><path style="opacity:1" fill="#e7d5bd" d="M 135.5,259.5 C 146.883,265.957 158.883,270.624 171.5,273.5C 158.11,272.152 146.11,267.486 135.5,259.5 Z"/></g>
<g><path style="opacity:1" fill="#e1d6c9" d="M 132.5,257.5 C 134.027,257.427 135.027,258.094 135.5,259.5C 133.973,259.573 132.973,258.906 132.5,257.5 Z"/></g>
<g><path style="opacity:1" fill="#e2d5c5" d="M 130.5,254.5 C 131.167,255.5 131.833,256.5 132.5,257.5C 130.804,257.315 129.471,256.481 128.5,255C 129.094,254.536 129.761,254.369 130.5,254.5 Z"/></g>
</svg>
